<svg width="45" height="26" viewBox="0 0 45 26" fill="none" xmlns="http://www.w3.org/2000/svg">
<path d="M41.5319 0.00210204C42.6353 -0.0480581 43.5706 0.805597 43.6207 1.90902L43.9594 9.3641C43.8241 9.4384 43.6918 9.52206 43.5642 9.61643C42.0339 10.7488 41.7113 12.9076 42.8436 14.438C43.2172 14.943 43.7032 15.3152 44.2409 15.5483L44.5348 22.0185C44.5849 23.1218 43.7312 24.0571 42.6279 24.1074L3.00504 25.9087C1.90161 25.9588 0.965738 25.1044 0.915577 24.001L0.594096 16.9353C0.897428 16.8245 1.19057 16.6701 1.46335 16.4682C2.99358 15.3359 3.31668 13.1777 2.18459 11.6474C1.69998 10.9925 1.02719 10.5578 0.296366 10.3646L0.00210209 3.89228C-0.0480584 2.78885 0.805586 1.85357 1.90902 1.80341L41.5319 0.00210204Z" fill="#F5C95A"/>
<path d="M12 7.99358C12 6.55535 12.3116 5.42076 12.9348 4.58978C13.5661 3.75881 14.5209 3.34332 15.7993 3.34332C17.0777 3.34332 18.0286 3.75881 18.6518 4.58978C19.283 5.42076 19.5986 6.55535 19.5986 7.99358C19.5986 9.4318 19.283 10.5664 18.6518 11.3974C18.0286 12.2283 17.0777 12.6438 15.7993 12.6438C14.5209 12.6438 13.5661 12.2283 12.9348 11.3974C12.3116 10.5664 12 9.4318 12 7.99358ZM14.421 7.99358C14.421 9.1921 14.5409 9.9991 14.7806 10.4146C15.0203 10.8221 15.3598 11.0258 15.7993 11.0258C16.2388 11.0258 16.5783 10.8221 16.818 10.4146C17.0577 9.9991 17.1776 9.1921 17.1776 7.99358C17.1776 6.79506 17.0577 5.99205 16.818 5.58455C16.5783 5.16907 16.2388 4.96132 15.7993 4.96132C15.3598 4.96132 15.0203 5.16907 14.7806 5.58455C14.5409 5.99205 14.421 6.79506 14.421 7.99358ZM14.7087 21.7885C14.3811 21.5568 14.3531 21.2452 14.6248 20.8537L26.8616 3.37928C27.1413 2.97977 27.4449 2.89588 27.7725 3.12759L28.6115 3.71486C28.9391 3.94658 28.967 4.25819 28.6954 4.64971L16.4585 22.1241C16.1788 22.5236 15.8752 22.6075 15.5476 22.3758L14.7087 21.7885ZM23.7215 17.5098C23.7215 16.0716 24.0331 14.937 24.6564 14.106C25.2876 13.2751 26.2424 12.8596 27.5208 12.8596C28.7992 12.8596 29.7501 13.2751 30.3733 14.106C31.0045 14.937 31.3201 16.0716 31.3201 17.5098C31.3201 18.948 31.0045 20.0826 30.3733 20.9136C29.7501 21.7446 28.7992 22.1601 27.5208 22.1601C26.2424 22.1601 25.2876 21.7446 24.6564 20.9136C24.0331 20.0826 23.7215 18.948 23.7215 17.5098ZM26.1425 17.5098C26.1425 18.7083 26.2624 19.5153 26.5021 19.9308C26.7418 20.3383 27.0814 20.5421 27.5208 20.5421C27.9603 20.5421 28.2999 20.3383 28.5396 19.9308C28.7793 19.5153 28.8991 18.7083 28.8991 17.5098C28.8991 16.3113 28.7793 15.5083 28.5396 15.1008C28.2999 14.6853 27.9603 14.4776 27.5208 14.4776C27.0814 14.4776 26.7418 14.6853 26.5021 15.1008C26.2624 15.5083 26.1425 16.3113 26.1425 17.5098Z" fill="white"/>
</svg>
