<?xml version="1.0" encoding="UTF-8"?>
<svg id="Layer_1" xmlns="http://www.w3.org/2000/svg" version="1.1" viewBox="0 0 18 18">
  <!-- Generator: Adobe Illustrator 30.3.0, SVG Export Plug-In . SVG Version: 2.1.3 Build 182)  -->
  <defs>
    <style>
      .st0, .st1 {
        fill: #12131a;
      }

      .st1 {
        fill-rule: evenodd;
      }
    </style>
  </defs>
  <path class="st1" d="M7.42,1.17c.75-.75,1.77-1.17,2.83-1.17h4.76c1.66,0,3,1.34,3,3v4.76c0,1.06-.42,2.08-1.17,2.83l-6.54,6.54c-1.17,1.17-3.07,1.17-4.24,0L.88,11.95c-1.17-1.17-1.17-3.07,0-4.24L7.42,1.17ZM10.24,2c-.53,0-1.04.21-1.41.59l-6.54,6.54c-.39.39-.39,1.02,0,1.41l5.17,5.17c.39.39,1.02.39,1.41,0l6.54-6.54c.38-.38.59-.88.59-1.41V3c0-.55-.45-1-1-1h-4.76Z"/>
  <path class="st0" d="M1.59,7l1.41-1.41,9.41,9.41-1.41,1.41L1.59,7Z"/>
  <path class="st0" d="M14,5c0,.55-.45,1-1,1s-1-.45-1-1,.45-1,1-1,1,.45,1,1Z"/>
</svg>