<svg width="48" height="48" viewBox="0 0 48 48" fill="none" xmlns="http://www.w3.org/2000/svg">
<g clip-path="url(#clip0_702_1681)">
<path d="M46.1803 20.1363C46.4133 21.5521 46.5397 23.0217 46.5397 24.5455C46.5397 31.564 44.0852 37.4622 39.8502 41.5377L32.9323 36.1695C35.2827 34.4082 36.8568 31.9228 37.4069 29.024L37.5201 28.4312H24.4996V20.1363H46.1803Z" fill="black" stroke="black"/>
<path d="M10.3156 29.3766C12.4496 34.9135 17.7639 38.9655 23.9991 38.9655C27.1707 38.9655 29.8891 38.1438 32.0665 36.7643L39.1017 42.2233C35.2731 45.5548 30.1266 47.4997 23.9991 47.4997C14.961 47.4997 7.14399 42.3688 3.21106 34.8932L9.09583 30.3092L9.0968 30.3102L10.3156 29.3766Z" fill="black" stroke="black"/>
<path d="M9.97852 19.6206C9.54961 21.0062 9.29591 22.4717 9.2959 23.9995C9.2959 25.5273 9.54964 26.9928 9.97852 28.3784C9.95681 28.3953 9.93417 28.4134 9.91016 28.4321C9.69182 28.6021 9.37918 28.8449 9.00488 29.1362C8.25639 29.7187 7.25867 30.4953 6.26074 31.271C5.26259 32.0468 4.26393 32.8222 3.51562 33.4018C3.21699 33.6332 2.95776 33.8323 2.75488 33.9888C1.31723 30.9633 0.5 27.5859 0.5 23.9995C0.500054 20.415 1.31568 17.0393 2.75195 14.0151L9.97852 19.6206Z" fill="black" stroke="black"/>
<path d="M23.9991 0.5C30.1503 0.5 35.3093 2.68379 39.3341 6.27734L33.1671 12.4443C30.624 10.2119 27.4904 9.05664 23.9991 9.05664C17.7721 9.05684 12.4636 13.0982 10.3243 18.624L3.21106 13.1045C7.14372 5.6101 14.9608 0.500172 23.9991 0.5Z" fill="black" stroke="black"/>
</g>
<defs>
<clipPath id="clip0_702_1681">
<rect width="48" height="48" fill="white"/>
</clipPath>
</defs>
</svg>
