<svg width="38" height="42" viewBox="0 0 38 42" fill="none" xmlns="http://www.w3.org/2000/svg">
<path d="M19.3019 0.884848C19.9179 -0.0318538 21.1605 -0.275901 22.0773 0.339926L27.2521 3.81649C27.2339 3.94995 27.2247 4.08624 27.2247 4.22469C27.2247 5.88155 28.5679 7.22469 30.2247 7.22469C30.7711 7.22469 31.2815 7.07562 31.7228 6.82039L36.1886 9.82137C37.105 10.4375 37.3484 11.6801 36.7325 12.5968L17.7716 40.8184C17.1556 41.7352 15.913 41.9783 14.9962 41.3624L10.1007 38.0733C10.18 37.8041 10.2247 37.5196 10.2247 37.2247C10.2246 35.5679 8.88149 34.2247 7.22472 34.2247C6.51581 34.2247 5.86508 34.4718 5.35167 34.8829L0.884871 31.8819C-0.031825 31.2659 -0.275934 30.0233 0.339949 29.1065L19.3019 0.884848Z" fill="#F5C95A"/>
<path d="M4.72461 22.7249L21.7246 34.7249" stroke="#B58D27"/>
</svg>
