<svg width="24" height="24" viewBox="0 0 24 24" fill="none" xmlns="http://www.w3.org/2000/svg">
<path d="M12 2C14.4407 2 16.5385 3.45744 17.4756 5.54492C17.5592 5.73116 17.615 5.85555 17.6572 5.94434C17.6674 5.96563 17.676 5.98277 17.6826 5.99609C17.6884 5.99634 17.6954 5.99782 17.7031 5.99805C17.7668 5.99995 17.8541 6 18 6C20.2091 6 22 7.79086 22 10C22 12.2091 20.2091 14 18 14H17.8281L15.8281 12H18C19.1046 12 20 11.1046 20 10C20 8.89543 19.1046 8 18 8C17.7791 8 17.5066 8.0058 17.2842 7.96094C17.072 7.91814 16.827 7.84643 16.5859 7.69043C16.3448 7.53434 16.1787 7.34013 16.0527 7.16406C15.9657 7.04241 15.8978 6.90084 15.8516 6.80371C15.7976 6.69018 15.7301 6.54181 15.6504 6.36426C15.024 4.9689 13.6244 4 12 4C10.3756 4 8.97598 4.9689 8.34961 6.36426C8.26991 6.54181 8.20243 6.69018 8.14844 6.80371C8.10224 6.90084 8.03429 7.04241 7.94727 7.16406C7.82131 7.34013 7.65522 7.53434 7.41406 7.69043C7.17297 7.84643 6.92798 7.91814 6.71582 7.96094C6.4934 8.0058 6.22093 8 6 8C4.89543 8 4 8.89543 4 10C4 11.1046 4.89543 12 6 12H8.17188L6.17188 14H6C3.79086 14 2 12.2091 2 10C2 7.79086 3.79086 6 6 6C6.14593 6 6.23321 5.99995 6.29688 5.99805C6.30415 5.99783 6.31087 5.99632 6.31641 5.99609C6.32308 5.98271 6.33255 5.96584 6.34277 5.94434C6.38499 5.85555 6.44081 5.73116 6.52441 5.54492C7.46148 3.45744 9.55931 2 12 2Z" fill="#33363F"/>
<path d="M12 12L11.2929 11.2929L12 10.5858L12.7071 11.2929L12 12ZM13 21C13 21.5523 12.5523 22 12 22C11.4477 22 11 21.5523 11 21L12 21L13 21ZM8 16L7.29289 15.2929L11.2929 11.2929L12 12L12.7071 12.7071L8.70711 16.7071L8 16ZM12 12L12.7071 11.2929L16.7071 15.2929L16 16L15.2929 16.7071L11.2929 12.7071L12 12ZM12 12L13 12L13 21L12 21L11 21L11 12L12 12Z" fill="#33363F"/>
</svg>
