<svg width="201" height="43" viewBox="0 0 201 43" fill="none" xmlns="http://www.w3.org/2000/svg">
<path d="M33.9045 2.8556C33.9045 5.46329 36.0255 7.58892 38.6378 7.58892H39.4413V37.6095C40.0014 36.8979 40.8048 36.3837 41.723 36.1954V5.48624C38.8674 5.12355 36.5994 2.8556 36.2367 0H9.3794C9.28758 0.729969 9.06722 1.41862 8.74585 2.05218H33.9045V2.8556Z" fill="black"/>
<path d="M37.8298 39.8545V9.14988C34.9742 8.78719 32.7063 6.51924 32.3436 3.66364H5.48624C5.12355 6.51924 2.8556 8.78719 0 9.14988V39.8545C1.52421 40.1712 2.72705 41.3787 3.04842 42.9029H12.3498C12.5288 42.9029 12.6757 42.7743 12.7079 42.5999C13.2404 39.5882 15.8527 37.3983 18.9195 37.3983C21.9863 37.3983 24.594 39.5836 25.1265 42.5999C25.1587 42.7743 25.3102 42.9029 25.4846 42.9029H34.786C35.1028 41.3787 36.3102 40.1712 37.8344 39.8545H37.8298ZM25.2872 10.7108L28.1336 11.6336V8.64028H30.0389V11.6382L32.8945 10.72L33.473 12.5151L30.6403 13.4425L32.3711 15.8619L30.8561 16.9729L29.0932 14.5489L27.321 16.9592L25.7968 15.8757L27.546 13.4471L24.7133 12.5059L25.2918 10.7154L25.2872 10.7108ZM28.5193 22.2801C29.6487 22.2801 30.6954 22.5235 31.6871 22.9688C32.7476 23.5013 33.4684 24.3828 33.753 25.5306C34.2672 27.9087 33.4408 30.1675 30.9984 31.0627L33.7852 35.1762L30.599 35.2084L28.152 31.531H24.1027L24.0982 35.2084H21.4767V22.2709L28.5147 22.2801H28.5193ZM5.22455 33.8678C5.22455 33.1241 5.83056 32.5181 6.57431 32.5181C7.31805 32.5181 7.92406 33.1241 7.92406 33.8678C7.92406 34.6116 7.31805 35.2176 6.57431 35.2176C5.83056 35.2176 5.22455 34.6116 5.22455 33.8678ZM16.8076 11.629H7.8506L7.84142 15.0172H15.4487L15.4441 17.1795H7.8506L7.84142 22.2709H5.22455V9.32893H16.8122L16.8076 11.629Z" fill="black"/>
<path d="M28.5237 29.2538C29.2904 29.185 29.9883 28.983 30.5713 28.432C31.2646 27.5919 31.3196 26.3982 30.7458 25.5168C30.2362 24.8694 29.4924 24.6674 28.6798 24.5618H24.1072V29.2538H28.5237Z" fill="black"/>
<path d="M47.9924 21.2756C47.9924 20.1233 48.204 19.0686 48.6272 18.1116C49.0504 17.1545 49.6428 16.3342 50.4045 15.6506C51.1728 14.9605 52.0907 14.4267 53.1584 14.0491C54.2327 13.6715 55.4208 13.4827 56.7229 13.4827C58.0185 13.4827 59.2034 13.6715 60.2776 14.0491C61.3518 14.4267 62.2698 14.9605 63.0315 15.6506C63.7997 16.3342 64.3954 17.1545 64.8186 18.1116C65.2418 19.0686 65.4534 20.1233 65.4534 21.2756C65.4534 22.4345 65.2418 23.4989 64.8186 24.469C64.3954 25.4325 63.7997 26.2626 63.0315 26.9592C62.2698 27.6558 61.3518 28.1995 60.2776 28.5901C59.2034 28.9742 58.0185 29.1663 56.7229 29.1663C55.4208 29.1663 54.2327 28.9742 53.1584 28.5901C52.0907 28.1995 51.1728 27.6558 50.4045 26.9592C49.6428 26.2626 49.0504 25.4325 48.6272 24.469C48.204 23.4989 47.9924 22.4345 47.9924 21.2756ZM51.0881 21.2756C51.0881 22.0634 51.2281 22.773 51.5081 23.4045C51.7945 24.0361 52.1884 24.5764 52.6897 25.0256C53.1975 25.4683 53.7932 25.8101 54.4768 26.051C55.1669 26.2919 55.9156 26.4124 56.7229 26.4124C57.5302 26.4124 58.2756 26.2919 58.9592 26.051C59.6493 25.8101 60.245 25.4683 60.7463 25.0256C61.2476 24.5764 61.6415 24.0361 61.928 23.4045C62.2144 22.773 62.3577 22.0634 62.3577 21.2756C62.3577 20.4879 62.2144 19.7815 61.928 19.1565C61.6415 18.5315 61.2476 18.0042 60.7463 17.5745C60.245 17.1383 59.6493 16.8062 58.9592 16.5784C58.2756 16.3505 57.5302 16.2366 56.7229 16.2366C55.9156 16.2366 55.1669 16.3505 54.4768 16.5784C53.7932 16.8062 53.1975 17.1383 52.6897 17.5745C52.1884 18.0042 51.7945 18.5315 51.5081 19.1565C51.2281 19.7815 51.0881 20.4879 51.0881 21.2756ZM68.6909 13.6877H76.4545C77.6264 13.6877 78.642 13.8114 79.5014 14.0588C80.3608 14.2997 81.0737 14.6513 81.6401 15.1135C82.2065 15.5758 82.6264 16.1389 82.8999 16.803C83.1798 17.467 83.3198 18.219 83.3198 19.0588C83.3198 19.6252 83.2514 20.1656 83.1147 20.6799C82.978 21.1877 82.7664 21.6565 82.4799 22.0862C82.2 22.5159 81.8452 22.9 81.4155 23.2385C80.9858 23.5706 80.4812 23.8472 79.9018 24.0686L83.2221 28.9514H79.4331L76.562 24.6155H76.4741L71.7866 24.6057V28.9514H68.6909V13.6877ZM76.5327 21.9299C77.1186 21.9299 77.6297 21.8616 78.0659 21.7249C78.5086 21.5881 78.8764 21.3961 79.1694 21.1487C79.4689 20.9013 79.6902 20.6018 79.8334 20.2502C79.9832 19.8922 80.0581 19.495 80.0581 19.0588C80.0581 18.206 79.7651 17.5484 79.1791 17.0862C78.5932 16.6174 77.7111 16.3831 76.5327 16.3831H71.7866V21.9299H76.5327ZM85.7467 21.178C85.7467 20.1038 85.9485 19.1012 86.3522 18.1702C86.7558 17.2327 87.345 16.4189 88.1198 15.7288C88.8945 15.0387 89.845 14.495 90.9713 14.0979C92.1041 13.7008 93.3997 13.5022 94.8581 13.5022C95.3854 13.5022 95.9127 13.5315 96.4401 13.5901C96.9739 13.6422 97.498 13.7268 98.0124 13.844C98.5332 13.9612 99.0377 14.1109 99.526 14.2932C100.021 14.469 100.49 14.6806 100.932 14.928L99.5065 17.2717C99.2396 17.1155 98.9368 16.9755 98.5983 16.8518C98.2597 16.7216 97.8952 16.6142 97.5045 16.5295C97.1204 16.4384 96.72 16.37 96.3034 16.3245C95.8932 16.2789 95.4798 16.2561 95.0631 16.2561C94.0996 16.2561 93.2402 16.3798 92.485 16.6272C91.7298 16.8681 91.0918 17.2099 90.5709 17.6526C90.0501 18.0888 89.653 18.6129 89.3795 19.2249C89.1061 19.8368 88.9694 20.5074 88.9694 21.2366C88.9694 21.9918 89.1126 22.6851 89.3991 23.3167C89.6855 23.9482 90.0924 24.4918 90.6198 24.9475C91.1471 25.4032 91.7851 25.7613 92.5338 26.0217C93.2825 26.2756 94.1191 26.4026 95.0436 26.4026C95.7793 26.4026 96.4531 26.3212 97.0651 26.1584C97.6771 25.9892 98.2109 25.7515 98.6666 25.4456C99.1224 25.1396 99.4935 24.7717 99.7799 24.342C100.066 23.9058 100.255 23.4176 100.346 22.8772H95.0143V20.3284H103.13V20.3381L103.139 20.3284C103.302 21.1096 103.351 21.8713 103.286 22.6135C103.227 23.3492 103.058 24.0458 102.778 24.7034C102.505 25.3544 102.127 25.9534 101.645 26.5002C101.163 27.0471 100.587 27.5191 99.9166 27.9163C99.2461 28.3069 98.4844 28.6129 97.6315 28.8342C96.7786 29.0491 95.8444 29.1565 94.8288 29.1565C93.4095 29.1565 92.1367 28.9482 91.0104 28.5315C89.8906 28.1148 88.9401 27.5452 88.1588 26.8225C87.3776 26.0999 86.7786 25.2535 86.362 24.2834C85.9518 23.3134 85.7467 22.2782 85.7467 21.178ZM111.797 13.6877H115.078L122.461 28.9514H119.209L117.988 26.3831H109.072L107.89 28.9514H104.629L111.797 13.6877ZM116.767 23.8342L113.467 16.9006L110.254 23.8342H116.767ZM124.614 13.6877H127.71L137.222 18.6682V13.6877H140.317V28.9514H137.222V21.9495L127.71 16.9983V28.9514H124.614V13.6877ZM144.043 13.6877H147.158V28.9514H144.043V13.6877ZM157.935 18.1116L159.4 16.3245H150.23V13.6877H165.162L156.617 24.4202L155.093 26.3147H164.683V28.9514H149.478L157.935 18.1116ZM167.413 13.6877H180.411V16.4026H170.508V19.4495H179.278V21.9983H170.508V26.2463H180.616V28.9514H167.413V13.6877ZM183.853 13.6877H191.617C192.789 13.6877 193.805 13.8114 194.664 14.0588C195.523 14.2997 196.236 14.6513 196.803 15.1135C197.369 15.5758 197.789 16.1389 198.062 16.803C198.342 17.467 198.482 18.219 198.482 19.0588C198.482 19.6252 198.414 20.1656 198.277 20.6799C198.14 21.1877 197.929 21.6565 197.642 22.0862C197.362 22.5159 197.008 22.9 196.578 23.2385C196.148 23.5706 195.644 23.8472 195.064 24.0686L198.385 28.9514H194.596L191.724 24.6155H191.637L186.949 24.6057V28.9514H183.853V13.6877ZM191.695 21.9299C192.281 21.9299 192.792 21.8616 193.228 21.7249C193.671 21.5881 194.039 21.3961 194.332 21.1487C194.631 20.9013 194.853 20.6018 194.996 20.2502C195.146 19.8922 195.221 19.495 195.221 19.0588C195.221 18.206 194.928 17.5484 194.342 17.0862C193.756 16.6174 192.874 16.3831 191.695 16.3831H186.949V21.9299H191.695Z" fill="black"/>
</svg>
