<?xml version="1.0" encoding="UTF-8"?>
<svg id="Layer_1" xmlns="http://www.w3.org/2000/svg" xmlns:xlink="http://www.w3.org/1999/xlink" version="1.1" viewBox="0 0 105 90.34">
  <!-- Generator: Adobe Illustrator 30.3.0, SVG Export Plug-In . SVG Version: 2.1.3 Build 182)  -->
  <defs>
    <style>
      .st0, .st1 {
        fill: none;
      }

      .st1 {
        stroke: #000;
        stroke-miterlimit: 10;
      }

      .st2 {
        clip-path: url(#clippath);
      }
    </style>
    <clipPath id="clippath">
      <rect class="st0" y="-85.66" width="81.36" height="175.75"/>
    </clipPath>
  </defs>
  <g class="st2">
    <g>
      <path class="st1" d="M0,99.71c0-4.88,33.79-4.88,33.79-9.75S0,85.09,0,80.21s33.79-4.88,33.79-9.75S0,65.59,0,60.71s33.79-4.88,33.79-9.75S0,46.09,0,41.21s33.79-4.88,33.79-9.75S0,26.59,0,21.71s33.79-4.88,33.79-9.75S0,7.09,0,2.21,33.79-2.66,33.79-7.54,0-12.41,0-17.29s33.79-4.88,33.79-9.75S0-31.91,0-36.79s33.79-4.88,33.79-9.75S0-51.41,0-56.29s33.79-4.88,33.79-9.75S0-70.91,0-75.79s33.79-4.88,33.79-9.75S0-90.41,0-95.29"/>
      <path class="st1" d="M23.79,99.71c0-4.88,33.79-4.88,33.79-9.75s-33.79-4.88-33.79-9.75,33.79-4.88,33.79-9.75-33.79-4.88-33.79-9.75,33.79-4.88,33.79-9.75-33.79-4.88-33.79-9.75,33.79-4.88,33.79-9.75-33.79-4.88-33.79-9.75,33.79-4.88,33.79-9.75S23.79,7.09,23.79,2.21,57.57-2.66,57.57-7.54s-33.79-4.88-33.79-9.75,33.79-4.88,33.79-9.75-33.79-4.88-33.79-9.75,33.79-4.88,33.79-9.75-33.79-4.88-33.79-9.75,33.79-4.88,33.79-9.75-33.79-4.88-33.79-9.75,33.79-4.88,33.79-9.75-33.79-4.88-33.79-9.75"/>
      <path class="st1" d="M47.57,99.71c0-4.88,33.79-4.88,33.79-9.75s-33.79-4.88-33.79-9.75,33.79-4.88,33.79-9.75-33.79-4.88-33.79-9.75,33.79-4.88,33.79-9.75-33.79-4.88-33.79-9.75,33.79-4.88,33.79-9.75-33.79-4.88-33.79-9.75,33.79-4.88,33.79-9.75S47.57,7.09,47.57,2.21s33.79-4.88,33.79-9.75-33.79-4.88-33.79-9.75,33.79-4.88,33.79-9.75-33.79-4.88-33.79-9.75,33.79-4.88,33.79-9.75-33.79-4.88-33.79-9.75,33.79-4.88,33.79-9.75-33.79-4.88-33.79-9.75,33.79-4.88,33.79-9.75-33.79-4.88-33.79-9.75"/>
    </g>
  </g>
  <ellipse cx="98" cy="83.78" rx="7" ry="6.31"/>
  <ellipse cx="98" cy="21.14" rx="7" ry="6.31"/>
</svg>