<svg width="105" height="70" viewBox="0 0 105 70" fill="none" xmlns="http://www.w3.org/2000/svg">
<g clip-path="url(#clip0_451_1351)">
<path d="M0 79.3734C0 74.4984 33.7871 74.4984 33.7871 69.6234C33.7871 64.7484 0 64.7484 0 59.8734C0 54.9984 33.7871 54.9984 33.7871 50.1234C33.7871 45.2484 0 45.2484 0 40.3734C0 35.4984 33.7871 35.4984 33.7871 30.6234C33.7871 25.7484 0 25.7484 0 20.8751C0 16.0018 33.7871 16.0001 33.7871 11.1251C33.7871 6.2501 0 6.2501 0 1.3751C0 -3.4999 33.7871 -3.4999 33.7871 -8.3749C33.7871 -13.2499 0 -13.2499 0 -18.1249C0 -22.9999 33.7871 -22.9999 33.7871 -27.8749C33.7871 -32.7499 0 -32.7499 0 -37.6249C0 -42.4999 33.7871 -42.4999 33.7871 -47.3749C33.7871 -52.2499 0 -52.2499 0 -57.1249C0 -61.9999 33.7871 -61.9999 33.7871 -66.8749C33.7871 -71.7499 0 -71.7499 0 -76.6249C0 -81.4999 33.7871 -81.4999 33.7871 -86.3749C33.7871 -91.2499 0 -91.2499 0 -96.1249C0 -101 33.7871 -101 33.7871 -105.877C33.7871 -110.753 0 -110.752 0 -115.627" stroke="black" stroke-miterlimit="10"/>
<path d="M23.7871 79.3734C23.7871 74.4984 57.5742 74.4984 57.5742 69.6234C57.5742 64.7484 23.7871 64.7484 23.7871 59.8734C23.7871 54.9984 57.5742 54.9984 57.5742 50.1234C57.5742 45.2484 23.7871 45.2484 23.7871 40.3734C23.7871 35.4984 57.5742 35.4984 57.5742 30.6234C57.5742 25.7484 23.7871 25.7484 23.7871 20.8751C23.7871 16.0018 57.5742 16.0001 57.5742 11.1251C57.5742 6.2501 23.7871 6.2501 23.7871 1.3751C23.7871 -3.4999 57.5742 -3.4999 57.5742 -8.3749C57.5742 -13.2499 23.7871 -13.2499 23.7871 -18.1249C23.7871 -22.9999 57.5742 -22.9999 57.5742 -27.8749C57.5742 -32.7499 23.7871 -32.7499 23.7871 -37.6249C23.7871 -42.4999 57.5742 -42.4999 57.5742 -47.3749C57.5742 -52.2499 23.7871 -52.2499 23.7871 -57.1249C23.7871 -61.9999 57.5742 -61.9999 57.5742 -66.8749C57.5742 -71.7499 23.7871 -71.7499 23.7871 -76.6249C23.7871 -81.4999 57.5742 -81.4999 57.5742 -86.3749C57.5742 -91.2499 23.7871 -91.2499 23.7871 -96.1249C23.7871 -101 57.5742 -101 57.5742 -105.877C57.5742 -110.753 23.7871 -110.752 23.7871 -115.627" stroke="black" stroke-miterlimit="10"/>
<path d="M47.5742 79.3734C47.5742 74.4984 81.3613 74.4984 81.3613 69.6234C81.3613 64.7484 47.5742 64.7484 47.5742 59.8734C47.5742 54.9984 81.3613 54.9984 81.3613 50.1234C81.3613 45.2484 47.5742 45.2484 47.5742 40.3734C47.5742 35.4984 81.3613 35.4984 81.3613 30.6234C81.3613 25.7484 47.5742 25.7484 47.5742 20.8751C47.5742 16.0018 81.3613 16.0001 81.3613 11.1251C81.3613 6.2501 47.5742 6.2501 47.5742 1.3751C47.5742 -3.4999 81.3613 -3.4999 81.3613 -8.3749C81.3613 -13.2499 47.5742 -13.2499 47.5742 -18.1249C47.5742 -22.9999 81.3613 -22.9999 81.3613 -27.8749C81.3613 -32.7499 47.5742 -32.7499 47.5742 -37.6249C47.5742 -42.4999 81.3613 -42.4999 81.3613 -47.3749C81.3613 -52.2499 47.5742 -52.2499 47.5742 -57.1249C47.5742 -61.9999 81.3613 -61.9999 81.3613 -66.8749C81.3613 -71.7499 47.5742 -71.7499 47.5742 -76.6249C47.5742 -81.4999 81.3613 -81.4999 81.3613 -86.3749C81.3613 -91.2499 47.5742 -91.2499 47.5742 -96.1249C47.5742 -101 81.3613 -101 81.3613 -105.877C81.3613 -110.753 47.5742 -110.752 47.5742 -115.627" stroke="black" stroke-miterlimit="10"/>
</g>
<ellipse cx="98" cy="63.438" rx="7" ry="6.30886" fill="black"/>
<defs>
<clipPath id="clip0_451_1351">
<rect width="81.3613" height="175.747" fill="white" transform="translate(0 -106)"/>
</clipPath>
</defs>
</svg>
