<?xml version="1.0" encoding="UTF-8"?>
<svg id="Layer_1" xmlns="http://www.w3.org/2000/svg" version="1.1" viewBox="0 0 116 115">
  <!-- Generator: Adobe Illustrator 30.3.0, SVG Export Plug-In . SVG Version: 2.1.3 Build 182)  -->
  <defs>
    <style>
      .st0 {
        fill: #e6ff06;
      }
    </style>
  </defs>
  <path class="st0" d="M42.97,115c-.61,0-1.08-.54-.99-1.14l5.45-37.14c.13-.89-.9-1.49-1.61-.93l-29.59,23.25c-.48.38-1.18.24-1.48-.28L.14,73.73c-.3-.52-.08-1.19.47-1.42l33.93-14.4c.82-.35.81-1.52-.02-1.85L.65,42.68c-.57-.23-.8-.9-.5-1.43l14.6-25.02c.3-.52.98-.65,1.46-.3l29.49,22.04c.72.53,1.72-.06,1.59-.95L41.98,1.15c-.09-.6.38-1.15.99-1.15h29.22c.6,0,1.07.53.99,1.12l-4.33,35.15c-.11.87.89,1.45,1.59.92l28.47-21.28c.48-.36,1.16-.22,1.46.3l14.6,25.02c.31.53.07,1.21-.5,1.43l-33.99,13.39c-.83.33-.85,1.5-.02,1.85l34.05,14.4c.56.23.78.9.47,1.43l-14.61,25.02c-.31.52-1,.66-1.48.28l-28.57-22.37c-.7-.55-1.72.02-1.61.91l4.46,36.3c.07.6-.39,1.12-.99,1.12h-29.23Z"/>
</svg>