<svg width="172" height="23" viewBox="0 0 172 23" fill="none" xmlns="http://www.w3.org/2000/svg">
<path d="M0 4.18359H16.3828V7.44141H3.71484V12.2344H14.4727V15.293H3.71484V22.5H0V4.18359ZM19.7288 4.18359H29.0452C30.4514 4.18359 31.6702 4.33203 32.7014 4.62891C33.7327 4.91797 34.5881 5.33984 35.2678 5.89453C35.9475 6.44922 36.4514 7.125 36.7795 7.92188C37.1155 8.71875 37.2834 9.62109 37.2834 10.6289C37.2834 11.3086 37.2014 11.957 37.0373 12.5742C36.8733 13.1836 36.6194 13.7461 36.2756 14.2617C35.9397 14.7773 35.5139 15.2383 34.9983 15.6445C34.4827 16.043 33.8772 16.375 33.1819 16.6406L37.1663 22.5H32.6194L29.1741 17.2969H29.0686L23.4436 17.2852V22.5H19.7288V4.18359ZM29.1389 14.0742C29.842 14.0742 30.4553 13.9922 30.9788 13.8281C31.51 13.6641 31.9514 13.4336 32.303 13.1367C32.6623 12.8398 32.928 12.4805 33.0998 12.0586C33.2795 11.6289 33.3694 11.1523 33.3694 10.6289C33.3694 9.60547 33.0178 8.81641 32.3147 8.26172C31.6116 7.69922 30.553 7.41797 29.1389 7.41797H23.4436V14.0742H29.1389ZM41.4263 4.18359H45.1411L56.5552 10.1602V4.18359H60.27V22.5H56.5552V14.0977L45.1411 8.15625V22.5H41.4263V4.18359ZM70.7292 7.44141H63.9675V4.18359H81.2058V7.44141H74.4441V22.5H70.7292V7.44141ZM84.9384 4.18359H94.2548C95.6611 4.18359 96.8798 4.33203 97.9111 4.62891C98.9423 4.91797 99.7978 5.33984 100.478 5.89453C101.157 6.44922 101.661 7.125 101.989 7.92188C102.325 8.71875 102.493 9.62109 102.493 10.6289C102.493 11.3086 102.411 11.957 102.247 12.5742C102.083 13.1836 101.829 13.7461 101.485 14.2617C101.149 14.7773 100.724 15.2383 100.208 15.6445C99.6923 16.043 99.0869 16.375 98.3916 16.6406L102.376 22.5H97.8291L94.3838 17.2969H94.2783L88.6533 17.2852V22.5H84.9384V4.18359ZM94.3486 14.0742C95.0517 14.0742 95.665 13.9922 96.1884 13.8281C96.7197 13.6641 97.1611 13.4336 97.5127 13.1367C97.872 12.8398 98.1377 12.4805 98.3095 12.0586C98.4892 11.6289 98.5791 11.1523 98.5791 10.6289C98.5791 9.60547 98.2275 8.81641 97.5244 8.26172C96.8213 7.69922 95.7627 7.41797 94.3486 7.41797H88.6533V14.0742H94.3486ZM105.581 13.2891C105.581 11.9062 105.835 10.6406 106.343 9.49219C106.851 8.34375 107.562 7.35938 108.476 6.53906C109.398 5.71094 110.499 5.07031 111.78 4.61719C113.07 4.16406 114.495 3.9375 116.058 3.9375C117.613 3.9375 119.034 4.16406 120.323 4.61719C121.613 5.07031 122.714 5.71094 123.628 6.53906C124.55 7.35938 125.265 8.34375 125.773 9.49219C126.28 10.6406 126.534 11.9062 126.534 13.2891C126.534 14.6797 126.28 15.957 125.773 17.1211C125.265 18.2773 124.55 19.2734 123.628 20.1094C122.714 20.9453 121.613 21.5977 120.323 22.0664C119.034 22.5273 117.613 22.7578 116.058 22.7578C114.495 22.7578 113.07 22.5273 111.78 22.0664C110.499 21.5977 109.398 20.9453 108.476 20.1094C107.562 19.2734 106.851 18.2773 106.343 17.1211C105.835 15.957 105.581 14.6797 105.581 13.2891ZM109.296 13.2891C109.296 14.2344 109.464 15.0859 109.8 15.8438C110.144 16.6016 110.616 17.25 111.218 17.7891C111.827 18.3203 112.542 18.7305 113.363 19.0195C114.191 19.3086 115.089 19.4531 116.058 19.4531C117.027 19.4531 117.921 19.3086 118.741 19.0195C119.57 18.7305 120.284 18.3203 120.886 17.7891C121.488 17.25 121.96 16.6016 122.304 15.8438C122.648 15.0859 122.82 14.2344 122.82 13.2891C122.82 12.3438 122.648 11.4961 122.304 10.7461C121.96 9.99609 121.488 9.36328 120.886 8.84766C120.284 8.32422 119.57 7.92578 118.741 7.65234C117.921 7.37891 117.027 7.24219 116.058 7.24219C115.089 7.24219 114.191 7.37891 113.363 7.65234C112.542 7.92578 111.827 8.32422 111.218 8.84766C110.616 9.36328 110.144 9.99609 109.8 10.7461C109.464 11.4961 109.296 12.3438 109.296 13.2891ZM128.052 4.18359H132.107L137.076 16.0078L138.224 18.8672L139.126 16.0078L140.955 11.6953L137.662 4.18359H141.482L142.83 7.75781L144.083 4.18359H147.904L144.611 11.6953L146.474 16.1016L147.599 18.8672L148.466 16.0547L153.458 4.18359H157.513L149.427 22.5H145.747L144.119 18.8672L142.794 15.3398L141.47 18.8672L139.818 22.5H136.138L128.052 4.18359ZM160.836 10.2305L163.332 6.79688L159.3 5.47266L160.121 2.92969L164.164 4.25391L164.14 0H166.847L166.824 4.25391L170.879 2.94141L171.711 5.48438L167.679 6.79688L170.14 10.2305L167.984 11.8008L165.5 8.35547L162.992 11.7891L160.836 10.2305Z" fill="black"/>
</svg>
