<?xml version="1.0" encoding="UTF-8"?>
<svg id="Layer_1" xmlns="http://www.w3.org/2000/svg" version="1.1" viewBox="0 0 172 23">
  <!-- Generator: Adobe Illustrator 30.3.0, SVG Export Plug-In . SVG Version: 2.1.3 Build 182)  -->
  <defs>
    <style>
      .st0 {
        fill: #fff;
      }
    </style>
  </defs>
  <path class="st0" d="M0,4.18h16.38v3.26H3.71v4.79h10.76v3.06H3.71v7.21H0V4.18ZM19.73,4.18h9.32c1.41,0,2.62.15,3.66.45,1.03.29,1.89.71,2.57,1.27.68.55,1.18,1.23,1.51,2.03.34.8.5,1.7.5,2.71,0,.68-.08,1.33-.25,1.95-.16.61-.42,1.17-.76,1.69-.34.52-.76.98-1.28,1.38-.52.4-1.12.73-1.82,1l3.98,5.86h-4.55l-3.45-5.2h-5.73s0,5.2,0,5.2h-3.71V4.18ZM29.14,14.07c.7,0,1.32-.08,1.84-.25.53-.16.97-.39,1.32-.69.36-.3.62-.66.8-1.08.18-.43.27-.91.27-1.43,0-1.02-.35-1.81-1.05-2.37-.7-.56-1.76-.84-3.18-.84h-5.7v6.66h5.7ZM41.43,4.18h3.71l11.41,5.98v-5.98h3.71v18.32h-3.71v-8.4l-11.41-5.94v14.34h-3.71V4.18ZM70.73,7.44h-6.76v-3.26h17.24v3.26h-6.76v15.06h-3.71V7.44ZM84.94,4.18h9.32c1.41,0,2.62.15,3.66.45,1.03.29,1.89.71,2.57,1.27.68.55,1.18,1.23,1.51,2.03.34.8.5,1.7.5,2.71,0,.68-.08,1.33-.25,1.95-.16.61-.42,1.17-.76,1.69-.34.52-.76.98-1.28,1.38-.52.4-1.12.73-1.82,1l3.98,5.86h-4.55l-3.45-5.2h-5.73s0,5.2,0,5.2h-3.71V4.18ZM94.35,14.07c.7,0,1.32-.08,1.84-.25.53-.16.97-.39,1.32-.69.36-.3.62-.66.8-1.08.18-.43.27-.91.27-1.43,0-1.02-.35-1.81-1.05-2.37-.7-.56-1.76-.84-3.18-.84h-5.7v6.66h5.7ZM105.58,13.29c0-1.38.25-2.65.76-3.8.51-1.15,1.22-2.13,2.13-2.95.92-.83,2.02-1.47,3.3-1.92,1.29-.45,2.72-.68,4.28-.68s2.98.23,4.26.68c1.29.45,2.39,1.09,3.31,1.92.92.82,1.64,1.8,2.15,2.95.51,1.15.76,2.41.76,3.8s-.25,2.67-.76,3.83c-.51,1.16-1.22,2.15-2.15,2.99-.91.84-2.01,1.49-3.31,1.96-1.29.46-2.71.69-4.26.69s-2.99-.23-4.28-.69c-1.28-.47-2.38-1.12-3.3-1.96-.91-.84-1.62-1.83-2.13-2.99-.51-1.16-.76-2.44-.76-3.83ZM109.3,13.29c0,.95.17,1.8.5,2.55.34.76.82,1.41,1.42,1.95.61.53,1.32.94,2.14,1.23.83.29,1.73.43,2.69.43s1.86-.14,2.68-.43c.83-.29,1.54-.7,2.15-1.23.6-.54,1.07-1.19,1.42-1.95.34-.76.52-1.61.52-2.55s-.17-1.79-.52-2.54c-.34-.75-.82-1.38-1.42-1.9-.6-.52-1.32-.92-2.15-1.2-.82-.27-1.71-.41-2.68-.41s-1.87.14-2.69.41c-.82.27-1.54.67-2.14,1.2-.6.52-1.07,1.15-1.42,1.9-.34.75-.5,1.6-.5,2.54ZM128.05,4.18h4.05l4.97,11.82,1.15,2.86.9-2.86,1.83-4.31-3.29-7.51h3.82l1.35,3.57,1.25-3.57h3.82l-3.29,7.51,1.86,4.41,1.12,2.77.87-2.81,4.99-11.87h4.06l-8.09,18.32h-3.68l-1.63-3.63-1.32-3.53-1.32,3.53-1.65,3.63h-3.68l-8.09-18.32ZM160.84,10.23l2.5-3.43-4.03-1.32.82-2.54,4.04,1.32-.02-4.25h2.71l-.02,4.25,4.05-1.31.83,2.54-4.03,1.31,2.46,3.43-2.16,1.57-2.48-3.45-2.51,3.43-2.16-1.56Z"/>
</svg>